<?xml version="1.0" standalone="no"?>
<!DOCTYPE svg PUBLIC "-//W3C//DTD SVG 20010904//EN"
 "http://www.w3.org/TR/2001/REC-SVG-20010904/DTD/svg10.dtd">
<svg version="1.0" xmlns="http://www.w3.org/2000/svg"
 width="500.000000pt" height="500.000000pt" viewBox="0 0 500.000000 500.000000"
 preserveAspectRatio="xMidYMid meet">
<metadata>
Created by potrace 1.14, written by Peter Selinger 2001-2017
</metadata>
<g transform="translate(0.000000,500.000000) scale(0.100000,-0.100000)"
fill="#000000" stroke="none">
<path d="M2460 4649 c-78 -31 -94 -114 -39 -201 30 -47 40 -98 25 -130 -7 -16
-1 -18 66 -18 l74 0 -1 58 c0 47 5 65 29 99 52 77 33 155 -47 188 -42 17 -71
18 -107 4z"/>
<path d="M2445 4270 c3 -5 37 -10 76 -10 39 0 69 4 69 10 0 6 -32 10 -76 10
-47 0 -73 -4 -69 -10z"/>
<path d="M2439 4229 c-18 -11 -18 -12 79 -14 56 -1 82 2 82 10 0 14 -139 18
-161 4z"/>
<path d="M2441 4172 c-6 -12 -23 -19 -48 -20 -44 -2 -126 -12 -157 -18 -12 -2
-46 -9 -77 -14 -88 -16 -257 -74 -366 -125 -110 -52 -293 -170 -369 -239 -47
-42 -52 -44 -67 -28 -16 15 -20 13 -67 -33 -47 -47 -62 -75 -40 -75 19 0 10
-25 -20 -60 -51 -58 -145 -200 -193 -290 -101 -190 -164 -398 -183 -605 -7
-79 -10 -85 -33 -85 -19 0 -20 -7 -20 -74 0 -69 2 -75 22 -78 18 -2 23 -11 25
-43 1 -22 9 -83 17 -135 42 -276 143 -519 307 -743 41 -54 48 -70 38 -82 -9
-11 -7 -19 10 -37 12 -13 33 -37 47 -55 21 -28 27 -30 44 -20 18 11 24 8 109
-73 147 -140 496 -320 689 -355 14 -3 41 -9 59 -14 18 -5 33 -10 35 -9 1 0 29
-3 62 -8 33 -4 69 -8 80 -10 11 -1 34 -3 52 -3 23 -1 33 -7 38 -21 6 -19 14
-21 78 -18 56 2 72 6 72 18 0 11 29 19 128 32 309 42 577 153 816 340 46 37
66 47 74 39 14 -14 118 85 110 105 -3 8 28 55 69 106 104 130 147 195 211 328
95 196 161 444 166 622 1 20 7 27 23 30 21 3 23 9 24 63 1 74 -3 85 -27 85
-14 0 -19 7 -20 28 -1 29 -3 44 -19 162 -36 245 -155 529 -307 729 -30 40 -31
45 -16 56 18 14 14 22 -44 89 -29 32 -35 35 -53 24 -17 -11 -25 -7 -67 33 -94
90 -119 110 -213 174 -163 109 -342 192 -506 234 -104 26 -133 32 -249 45 -81
10 -95 15 -95 32 0 11 -16 14 -70 14 -56 0 -71 -3 -79 -18z m274 -77 c28 -4
97 -18 155 -31 657 -154 1151 -711 1229 -1384 9 -86 7 -326 -4 -390 -25 -147
-57 -276 -76 -312 -5 -10 -9 -23 -9 -29 0 -11 -9 -34 -67 -159 -94 -206 -312
-461 -513 -602 -104 -73 -275 -163 -385 -202 -592 -210 -1242 -63 -1682 380
-257 259 -409 567 -458 924 -12 93 -13 349 0 420 37 218 82 362 160 515 148
292 397 546 684 697 141 74 355 147 479 164 20 2 64 8 97 13 65 9 309 6 390
-4z"/>
<path d="M2417 4084 c-1 -1 -33 -4 -72 -8 -95 -8 -124 -13 -238 -42 -364 -91
-693 -321 -909 -634 -552 -800 -265 -1893 610 -2325 163 -80 348 -133 529
-151 660 -66 1286 279 1578 871 140 284 193 570 161 871 -46 445 -287 857
-654 1121 -262 188 -570 290 -900 297 -56 1 -103 2 -105 0z m356 -129 c627
-116 1107 -618 1201 -1253 16 -104 13 -341 -4 -432 -6 -36 -14 -76 -16 -90 -3
-14 -18 -70 -35 -125 -132 -433 -467 -787 -896 -948 -59 -23 -159 -51 -216
-63 -10 -2 -26 -5 -35 -8 -67 -20 -334 -27 -447 -12 -484 63 -901 348 -1133
776 -22 42 -48 96 -57 120 -92 253 -110 346 -110 575 0 197 16 298 76 485 36
112 167 362 209 400 3 3 23 28 45 55 53 67 177 187 245 239 203 154 472 266
705 292 33 3 62 8 64 10 11 10 328 -6 404 -21z"/>
<path d="M2398 3955 c-2 -2 -30 -6 -63 -9 -161 -16 -396 -89 -515 -158 -169
-100 -232 -148 -361 -278 -378 -380 -511 -949 -343 -1469 18 -56 21 -63 72
-173 102 -220 279 -428 482 -568 91 -63 93 -64 205 -119 418 -205 928 -190
1340 41 102 57 229 154 318 242 72 71 191 222 218 274 7 15 24 44 36 64 75
124 149 357 169 539 11 103 4 364 -11 389 -2 3 -6 25 -10 49 -19 126 -99 333
-180 469 -227 373 -588 616 -1030 692 -62 10 -319 22 -327 15z m304 -40 c47
-7 95 -16 105 -19 10 -3 29 -7 43 -10 54 -9 190 -59 285 -105 253 -123 489
-351 624 -601 78 -146 139 -333 158 -485 10 -79 10 -303 0 -385 -26 -207 -129
-470 -253 -647 -64 -91 -231 -255 -329 -324 -149 -105 -315 -182 -482 -223
-139 -35 -189 -41 -353 -40 -166 0 -218 6 -351 39 -471 118 -858 479 -1008
941 -16 50 -32 106 -35 125 -26 140 -34 220 -34 324 1 368 140 717 390 976
147 153 286 251 471 331 103 45 281 95 372 104 33 4 62 8 64 10 9 8 257 0 333
-11z"/>
<path d="M2433 3763 c-10 -3 -13 -42 -13 -142 l0 -138 -42 -16 c-24 -9 -69
-23 -100 -33 -32 -10 -59 -22 -59 -28 -5 -39 -3 -229 2 -232 4 -2 51 8 105 22
55 14 104 27 109 28 6 1 15 4 20 8 11 6 57 -3 195 -41 41 -11 76 -18 79 -15 5
5 9 204 4 224 -3 10 -43 28 -106 48 l-102 31 1 138 c0 89 -3 141 -10 145 -12
9 -64 9 -83 1z"/>
<path d="M2335 3169 c-60 -16 -117 -31 -125 -33 -101 -26 -203 -56 -207 -60
-6 -6 -6 -166 -1 -172 4 -4 33 4 290 79 l187 55 83 -23 c46 -12 153 -41 238
-64 85 -23 163 -45 173 -47 15 -5 17 4 17 85 l0 90 -37 10 c-168 45 -457 111
-480 110 -15 0 -77 -14 -138 -30z"/>
<path d="M2444 2969 c-6 -8 -9 -34 -8 -59 1 -25 3 -82 4 -127 l2 -82 37 1 c20
1 43 -1 51 -3 12 -3 14 16 12 131 -2 74 -5 136 -7 138 -2 2 -21 6 -42 9 -26 3
-42 1 -49 -8z"/>
<path d="M2255 2916 l-140 -42 2 -65 c2 -123 6 -178 13 -189 4 -7 39 -1 106
19 54 16 118 34 142 41 l43 11 -5 92 c-2 51 -5 111 -5 135 -1 23 -4 42 -8 41
-5 -1 -71 -20 -148 -43z"/>
<path d="M2568 2948 c-2 -7 -3 -47 -2 -88 1 -41 2 -98 3 -126 l1 -51 141 -37
c78 -20 144 -35 147 -31 6 6 15 114 16 199 l1 60 -60 17 c-33 9 -95 26 -137
38 -42 11 -83 24 -91 27 -8 3 -16 -1 -19 -8z"/>
<path d="M2906 2841 c-3 -14 -8 -66 -11 -116 -4 -49 -9 -98 -11 -107 -3 -10 3
-19 16 -23 12 -4 23 -5 25 -3 2 1 6 48 10 103 3 55 8 114 11 131 4 25 1 32
-15 37 -15 4 -21 -1 -25 -22z"/>
<path d="M2045 2763 c6 -91 14 -165 19 -170 1 -1 12 0 24 3 19 5 21 11 16 48
-9 72 -12 109 -13 164 -1 49 -2 52 -27 52 l-26 0 7 -97z"/>
<path d="M1990 2841 c-8 -5 -44 -19 -80 -31 -36 -12 -69 -26 -74 -30 -10 -10
-14 -227 -4 -242 4 -7 40 -2 107 17 l101 27 -4 37 c-3 20 -8 74 -11 121 -8 96
-13 112 -35 101z"/>
<path d="M2976 2841 c-6 -10 -14 -75 -22 -173 l-6 -87 28 -7 c16 -3 60 -15 99
-25 108 -29 100 -38 99 108 l-1 128 -34 12 c-85 30 -160 50 -163 44z"/>
<path d="M2465 2651 c-18 -7 -20 -18 -21 -135 0 -126 3 -137 35 -117 8 6 24 6
38 0 22 -8 23 -7 24 39 0 26 2 82 3 125 1 43 -1 80 -4 81 -17 10 -58 13 -75 7z"/>
<path d="M2375 2627 c-16 -6 -77 -23 -135 -37 l-105 -27 -3 -150 -3 -150 143
57 143 56 3 124 c1 68 -1 127 -5 130 -4 4 -21 3 -38 -3z"/>
<path d="M2569 2591 c0 -25 -1 -84 -2 -130 l-1 -83 105 -43 c57 -23 121 -50
142 -59 20 -9 37 -13 38 -9 0 5 3 72 5 150 l5 142 -43 12 c-24 6 -89 24 -145
39 l-103 28 -1 -47z"/>
<path d="M2065 2540 c-7 -11 -5 -300 2 -300 2 0 12 4 22 10 17 8 19 24 19 155
-1 133 -2 145 -19 145 -10 0 -21 -4 -24 -10z"/>
<path d="M2881 2426 c-1 -68 -4 -133 -6 -145 -2 -13 4 -26 18 -36 l22 -15 5
142 c5 144 0 178 -24 178 -10 0 -13 -29 -15 -124z"/>
<path d="M1916 2502 l-88 -25 7 -146 c4 -80 8 -152 8 -158 0 -7 4 -13 7 -13 9
0 124 43 162 61 l27 12 0 148 c-1 172 12 160 -123 121z"/>
<path d="M2945 2381 c0 -87 4 -154 10 -159 16 -14 168 -72 174 -67 3 3 6 16 7
28 1 12 4 42 7 67 22 159 29 222 26 224 -8 5 -200 56 -212 56 -9 0 -12 -35
-12 -149z"/>
<path d="M1784 2463 c-6 -2 -9 -22 -8 -46 8 -100 13 -195 13 -234 1 -33 5 -43
17 -43 15 0 16 13 9 128 -4 70 -7 141 -8 159 -2 35 -7 42 -23 36z"/>
<path d="M3196 2452 c-3 -5 -8 -31 -11 -58 -3 -27 -8 -65 -10 -84 -3 -19 -7
-62 -11 -94 -3 -33 -6 -64 -7 -69 -1 -5 4 -12 11 -14 7 -3 12 4 13 19 0 13 2
30 4 39 1 8 6 41 9 71 4 31 8 64 10 74 14 73 17 124 8 124 -6 0 -13 -4 -16 -8z"/>
<path d="M1729 2424 c-10 -13 -15 -56 -16 -166 -2 -137 -1 -148 16 -148 36 0
41 22 35 141 -4 63 -7 128 -8 146 -1 40 -9 48 -27 27z"/>
<path d="M3239 2423 c-3 -15 -7 -49 -14 -103 -4 -30 -8 -65 -10 -76 -18 -119
-18 -131 7 -137 43 -12 45 -9 52 86 4 50 10 118 12 150 5 49 2 61 -13 73 -20
15 -32 18 -34 7z"/>
<path d="M2488 2365 c-2 -3 -173 -69 -379 -149 -272 -105 -375 -149 -377 -161
-6 -26 61 -153 108 -207 l41 -48 82 44 c45 24 184 96 309 159 l227 117 38 -14
c33 -12 143 -58 515 -215 54 -23 100 -41 102 -41 9 0 59 95 77 144 14 39 15
54 6 62 -7 6 -70 35 -142 63 -71 29 -143 58 -160 66 -16 7 -102 42 -190 78
-88 36 -181 74 -207 85 -25 11 -48 19 -50 17z"/>
<path d="M2529 2063 c-1 -4 -1 -10 -1 -13 0 -3 3 -68 7 -145 3 -77 8 -156 10
-175 2 -19 6 -91 10 -160 7 -139 13 -201 17 -206 3 -2 51 33 293 215 107 80
261 229 249 240 -5 5 -115 52 -244 106 -206 86 -307 129 -332 142 -5 2 -9 1
-9 -4z"/>
<path d="M2209 1927 c-140 -73 -265 -139 -277 -147 -20 -15 -18 -18 85 -105
58 -49 136 -110 172 -135 36 -25 110 -76 163 -113 54 -37 99 -67 101 -67 3 0
5 37 6 83 2 45 4 107 6 137 10 168 15 480 8 479 -4 0 -123 -60 -264 -132z"/>
<path d="M1809 1786 c-2 -2 -31 -6 -64 -9 -81 -7 -175 -38 -263 -87 -61 -34
-71 -44 -63 -58 19 -32 112 -125 193 -193 l82 -67 42 37 c24 21 49 38 56 38 7
0 32 5 54 11 23 5 87 10 143 11 90 2 169 17 174 32 1 3 -27 28 -63 55 -68 51
-76 58 -200 168 -73 64 -82 70 -91 62z"/>
<path d="M3095 1726 c-56 -59 -178 -163 -252 -215 -18 -12 -33 -26 -33 -30 0
-8 67 -26 135 -38 69 -11 192 -5 251 12 97 28 194 79 327 173 l59 41 -94 -1
c-114 -1 -174 17 -264 78 -35 24 -65 44 -67 44 -1 -1 -29 -29 -62 -64z"/>
<path d="M3529 1584 c-67 -50 -198 -123 -266 -147 -140 -51 -282 -53 -434 -7
l-64 20 -45 -32 c-25 -17 -80 -58 -123 -90 -83 -62 -91 -65 -111 -45 -8 6 -22
18 -32 24 -11 7 -68 47 -128 89 l-110 76 -63 -21 c-47 -16 -89 -21 -162 -21
-55 0 -122 -5 -149 -11 -47 -11 -102 -42 -92 -52 3 -3 32 -8 65 -11 172 -19
379 -81 476 -142 29 -18 46 -23 67 -17 15 4 29 8 32 8 3 1 23 9 45 19 88 40
182 68 220 66 22 -1 56 -2 75 -3 19 0 82 9 140 22 127 28 193 25 247 -11 l38
-25 70 45 c135 86 262 191 329 270 25 29 18 28 -25 -4z"/>
<path d="M1790 1310 c67 -48 234 -118 361 -150 111 -29 109 -29 208 -36 248
-20 439 7 660 92 l95 37 -25 20 c-21 17 -34 19 -104 14 -44 -3 -122 -16 -174
-30 -80 -20 -98 -22 -120 -11 -19 9 -39 10 -73 4 -43 -8 -175 -57 -219 -80
-35 -19 -86 -22 -101 -7 -34 34 -220 109 -303 122 -11 2 -40 8 -65 13 -77 18
-157 24 -140 12z"/>
<path d="M1003 4049 c-39 -12 -80 -59 -88 -103 -14 -72 35 -128 122 -142 50
-8 89 -31 103 -62 l11 -25 55 54 c45 45 51 55 37 60 -33 13 -61 54 -77 113 -8
33 -26 70 -39 83 -27 27 -78 36 -124 22z"/>
<path d="M4004 3969 c-42 -12 -69 -45 -88 -109 -19 -66 -33 -86 -70 -100 l-27
-10 46 -55 c26 -30 51 -55 56 -55 4 0 11 9 14 20 8 25 45 44 113 59 70 15 89
25 107 61 52 100 -43 219 -151 189z"/>
<path d="M1230 3761 c-50 -53 -64 -71 -52 -71 13 0 102 86 102 100 0 17 -14
10 -50 -29z"/>
<path d="M1252 3720 c-29 -32 -49 -61 -44 -64 11 -7 125 108 116 117 -12 12
-17 8 -72 -53z"/>
<path d="M3797 3724 c-3 -6 16 -34 42 -62 77 -83 80 -60 3 27 -21 25 -41 40
-45 35z"/>
<path d="M3756 3702 c-3 -5 17 -34 44 -63 27 -30 49 -57 50 -61 0 -14 20 -9
20 5 -1 18 -107 129 -114 119z"/>
<path d="M397 2614 c-54 -29 -78 -126 -46 -186 15 -28 69 -58 104 -58 18 0 53
15 85 36 48 31 61 35 103 31 l47 -4 0 73 0 74 -26 -10 c-33 -13 -66 -5 -130
31 -57 32 -95 36 -137 13z"/>
<path d="M4475 2601 c-55 -38 -95 -50 -124 -39 -32 11 -36 3 -35 -74 1 -49 4
-62 15 -59 44 12 76 6 135 -25 35 -19 76 -34 90 -34 38 0 79 28 98 67 62 130
-63 245 -179 164z"/>
<path d="M758 2583 c-4 -7 -3 -61 1 -145 1 -10 6 -18 11 -18 13 0 13 157 1
165 -5 3 -11 2 -13 -2z"/>
<path d="M719 2579 c-1 -2 -3 -37 -4 -77 -2 -51 0 -72 8 -69 8 2 11 27 9 73
-3 58 -8 90 -13 73z"/>
<path d="M4230 2501 c0 -44 5 -83 10 -86 6 -4 10 25 10 79 0 51 -4 86 -10 86
-6 0 -10 -33 -10 -79z"/>
<path d="M4273 2506 c3 -89 17 -96 17 -8 0 40 -4 72 -9 72 -5 0 -9 -29 -8 -64z"/>
<path d="M1162 1391 c6 -18 100 -121 110 -121 15 0 7 12 -46 74 -44 50 -74 72
-64 47z"/>
<path d="M1140 1353 c0 -15 88 -108 96 -101 4 4 -13 29 -37 55 -45 50 -59 61
-59 46z"/>
<path d="M1096 1312 c-8 -25 -39 -40 -121 -60 -49 -12 -73 -24 -86 -42 -58
-80 -5 -196 95 -207 63 -8 108 26 125 94 16 64 47 112 77 119 28 7 23 18 -30
77 -38 41 -52 46 -60 19z"/>
<path d="M3681 1252 c-29 -31 -48 -58 -42 -60 10 -3 121 101 121 113 0 17 -33
-5 -79 -53z"/>
<path d="M3718 1226 c-26 -28 -43 -53 -37 -54 5 -2 24 11 42 30 50 53 59 66
50 71 -4 2 -29 -19 -55 -47z"/>
<path d="M3752 1199 c-49 -49 -52 -54 -35 -66 41 -28 61 -58 73 -111 8 -37 22
-66 42 -85 26 -27 33 -29 84 -25 42 4 61 11 84 33 74 71 54 174 -41 204 -116
36 -126 41 -140 72 l-15 31 -52 -53z"/>
<path d="M2430 768 c0 -9 19 -13 67 -11 102 2 105 2 98 13 -9 15 -165 13 -165
-2z"/>
<path d="M2450 732 c-5 -2 -10 -7 -10 -11 0 -11 138 -12 145 0 4 5 -2 9 -12
10 -55 3 -114 4 -123 1z"/>
<path d="M2447 647 c4 -35 -1 -54 -31 -111 -37 -69 -39 -91 -14 -143 16 -33
85 -63 128 -57 48 8 87 33 99 63 22 55 20 79 -11 128 -43 68 -52 97 -39 133
l10 30 -73 0 -74 0 5 -43z"/>
</g>
</svg>
